<svg xmlns="http://www.w3.org/2000/svg" version="1.1" xmlns:xlink="http://www.w3.org/1999/xlink" viewBox="0 0 200 200"><rect width="200" height="200" fill="url('#gradient')"></rect><defs><linearGradient id="gradient" gradientTransform="rotate(45 0.5 0.5)"><stop offset="0%" stop-color="#ffffff"></stop><stop offset="100%" stop-color="#ffffff"></stop></linearGradient></defs><g><g fill="#79b4ca" transform="matrix(4.11612326931666,0,0,4.11612326931666,5.592260242999259,128.85574209525043)" stroke="#000000" stroke-width="0.2"><path d="M4.50-14.22L4.50-2.64L10.47-2.64L10.47 0L1.07 0L1.07-14.22L4.50-14.22ZM16.59 0L11.91 0L11.91-14.22L16.49-14.22Q18.38-14.22 19.88-13.36Q21.39-12.51 22.23-10.95Q23.08-9.39 23.09-7.46L23.09-7.46L23.09-6.81Q23.09-4.85 22.26-3.31Q21.44-1.76 19.94-0.88Q18.44-0.01 16.59 0L16.59 0ZM16.49-11.57L15.34-11.57L15.34-2.64L16.53-2.64Q18.01-2.64 18.80-3.69Q19.59-4.74 19.59-6.81L19.59-6.81L19.59-7.42Q19.59-9.48 18.80-10.53Q18.01-11.57 16.49-11.57L16.49-11.57ZM29.80 0.20L29.80 0.20Q27.37 0.20 25.87-1.25Q24.37-2.71 24.37-5.03L24.37-5.03L24.37-5.30Q24.37-6.92 24.97-8.16Q25.57-9.40 26.72-10.08Q27.87-10.76 29.45-10.76L29.45-10.76Q31.68-10.76 32.97-9.38Q34.26-8.00 34.26-5.53L34.26-5.53L34.26-4.25L27.71-4.25Q27.89-3.36 28.49-2.85Q29.08-2.34 30.03-2.34L30.03-2.34Q31.59-2.34 32.47-3.44L32.47-3.44L33.97-1.66Q33.36-0.81 32.23-0.31Q31.10 0.20 29.80 0.20ZM29.43-8.22L29.43-8.22Q27.99-8.22 27.71-6.31L27.71-6.31L31.04-6.31L31.04-6.56Q31.05-7.35 30.63-7.79Q30.21-8.22 29.43-8.22ZM38.03-10.57L39.67-3.92L41.34-10.57L44.80-10.57L41.36 0L38.00 0L34.55-10.57L38.03-10.57Z"></path></g></g></svg>