<svg width="310" height="46" viewBox="0 0 310 46" fill="none" xmlns="http://www.w3.org/2000/svg">
<path d="M-0.000203013 35.664V2.64H8.3518V28.944H21.2158V35.664H-0.000203013ZM36.7262 36.048C34.4222 36.048 32.5182 35.904 31.0142 35.616C29.5102 35.328 28.3102 34.88 27.4142 34.272C26.5502 33.632 25.8942 32.816 25.4462 31.824C25.0302 30.832 24.7582 29.648 24.6302 28.272C24.5342 26.896 24.4862 25.296 24.4862 23.472C24.4862 21.264 24.5822 19.36 24.7742 17.76C24.9982 16.16 25.4782 14.848 26.2142 13.824C26.9502 12.8 28.0862 12.048 29.6222 11.568C31.1902 11.056 33.3022 10.8 35.9582 10.8C38.1022 10.8 39.8462 10.96 41.1902 11.28C42.5342 11.568 43.5902 12.032 44.3582 12.672C45.1582 13.28 45.7182 14.08 46.0382 15.072C46.3902 16.064 46.6142 17.264 46.7102 18.672C46.8062 20.048 46.8542 21.648 46.8542 23.472V25.344H32.1182C32.1182 26.432 32.1662 27.312 32.2622 27.984C32.3582 28.624 32.6142 29.104 33.0302 29.424C33.4462 29.744 34.0862 29.968 34.9502 30.096C35.8142 30.192 37.0142 30.24 38.5502 30.24C39.1582 30.24 39.8782 30.224 40.7102 30.192C41.5422 30.16 42.4062 30.112 43.3022 30.048C44.2302 29.984 45.0942 29.92 45.8942 29.856V35.232C45.1902 35.392 44.3262 35.536 43.3022 35.664C42.3102 35.792 41.2382 35.888 40.0862 35.952C38.9342 36.016 37.8142 36.048 36.7262 36.048ZM39.6062 22.128V21.36C39.6062 20.208 39.5422 19.296 39.4142 18.624C39.3182 17.952 39.1262 17.456 38.8382 17.136C38.5822 16.784 38.2142 16.56 37.7342 16.464C37.2542 16.368 36.6462 16.32 35.9102 16.32C35.0782 16.32 34.4062 16.384 33.8942 16.512C33.4142 16.608 33.0462 16.832 32.7902 17.184C32.5342 17.536 32.3582 18.048 32.2622 18.72C32.1662 19.392 32.1182 20.272 32.1182 21.36H40.4222L39.6062 22.128ZM62.7729 36.048C60.5969 36.048 58.7889 35.92 57.3489 35.664C55.9089 35.408 54.7729 34.992 53.9409 34.416C53.1089 33.84 52.5009 33.072 52.1169 32.112C51.7329 31.152 51.4769 29.952 51.3489 28.512C51.2529 27.072 51.2049 25.36 51.2049 23.376C51.2049 21.392 51.2529 19.696 51.3489 18.288C51.4769 16.848 51.7329 15.648 52.1169 14.688C52.5009 13.728 53.1089 12.96 53.9409 12.384C54.7729 11.808 55.9089 11.408 57.3489 11.184C58.7889 10.928 60.5969 10.8 62.7729 10.8C64.9809 10.8 66.8049 10.928 68.2449 11.184C69.6849 11.408 70.8209 11.808 71.6529 12.384C72.4849 12.96 73.0929 13.728 73.4769 14.688C73.8609 15.648 74.1009 16.848 74.1969 18.288C74.3249 19.696 74.3889 21.392 74.3889 23.376C74.3889 25.36 74.3249 27.072 74.1969 28.512C74.1009 29.952 73.8609 31.152 73.4769 32.112C73.0929 33.072 72.4849 33.84 71.6529 34.416C70.8209 34.992 69.6849 35.408 68.2449 35.664C66.8049 35.92 64.9809 36.048 62.7729 36.048ZM62.7729 30.192C63.7329 30.192 64.4849 30.128 65.0289 30C65.5729 29.872 65.9569 29.584 66.1809 29.136C66.4049 28.688 66.5329 28 66.5649 27.072C66.6289 26.144 66.6609 24.912 66.6609 23.376C66.6609 21.84 66.6289 20.624 66.5649 19.728C66.5329 18.832 66.4049 18.16 66.1809 17.712C65.9569 17.264 65.5729 16.976 65.0289 16.848C64.4849 16.72 63.7329 16.656 62.7729 16.656C61.8129 16.656 61.0609 16.72 60.5169 16.848C60.0049 16.976 59.6369 17.264 59.4129 17.712C59.1889 18.16 59.0449 18.832 58.9809 19.728C58.9489 20.624 58.9329 21.84 58.9329 23.376C58.9329 24.912 58.9489 26.144 58.9809 27.072C59.0449 28 59.1889 28.688 59.4129 29.136C59.6369 29.584 60.0049 29.872 60.5169 30C61.0609 30.128 61.8129 30.192 62.7729 30.192ZM79.5365 35.664V11.184H86.8325L87.0245 14.16H87.4565C87.9365 13.328 88.5285 12.672 89.2325 12.192C89.9365 11.68 90.7365 11.328 91.6325 11.136C92.5285 10.912 93.5045 10.8 94.5605 10.8C96.1925 10.8 97.4885 11.008 98.4485 11.424C99.4405 11.84 100.193 12.448 100.705 13.248C101.217 14.048 101.553 15.04 101.713 16.224C101.905 17.408 102.001 18.784 102.001 20.352V35.664H94.2725V22.704C94.2725 21.392 94.2405 20.368 94.1765 19.632C94.1125 18.864 93.9685 18.304 93.7445 17.952C93.5205 17.6 93.1685 17.392 92.6885 17.328C92.2405 17.232 91.6325 17.184 90.8645 17.184C90.0645 17.184 89.4085 17.28 88.8965 17.472C88.4165 17.632 88.0485 17.92 87.7925 18.336C87.5685 18.752 87.4085 19.344 87.3125 20.112C87.2485 20.848 87.2165 21.776 87.2165 22.896V35.664H79.5365ZM107.8 6.192V0H115.72V6.192H107.8ZM107.896 35.664V11.184H115.672V35.664H107.896ZM128.83 36.048C127.422 36.048 126.206 35.856 125.182 35.472C124.158 35.088 123.326 34.432 122.686 33.504C122.046 32.544 121.566 31.248 121.246 29.616C120.958 27.984 120.814 25.936 120.814 23.472C120.814 21.04 120.958 19.008 121.246 17.376C121.534 15.712 121.998 14.416 122.638 13.488C123.278 12.528 124.094 11.84 125.086 11.424C126.11 11.008 127.342 10.8 128.782 10.8C129.742 10.8 130.638 10.88 131.47 11.04C132.334 11.2 133.118 11.488 133.822 11.904C134.526 12.32 135.134 12.944 135.646 13.776H136.03V0H143.758V35.664H136.414L136.222 32.736H135.838C135.358 33.664 134.734 34.368 133.966 34.848C133.23 35.296 132.414 35.6 131.518 35.76C130.654 35.952 129.758 36.048 128.83 36.048ZM132.286 29.712C133.278 29.712 134.014 29.6 134.494 29.376C135.006 29.12 135.374 28.672 135.598 28.032C135.79 27.456 135.902 26.8 135.934 26.064C135.998 25.296 136.03 24.416 136.03 23.424C136.03 22.432 135.998 21.568 135.934 20.832C135.902 20.096 135.79 19.472 135.598 18.96C135.406 18.256 135.054 17.776 134.542 17.52C134.03 17.264 133.278 17.136 132.286 17.136C131.422 17.136 130.734 17.2 130.222 17.328C129.71 17.456 129.326 17.728 129.07 18.144C128.846 18.528 128.702 19.136 128.638 19.968C128.574 20.8 128.542 21.952 128.542 23.424C128.542 24.896 128.574 26.064 128.638 26.928C128.702 27.76 128.846 28.384 129.07 28.8C129.326 29.184 129.71 29.44 130.222 29.568C130.734 29.664 131.422 29.712 132.286 29.712ZM162.281 35.664V2.64H173.849C176.793 2.64 179.193 2.8 181.049 3.12C182.905 3.408 184.361 3.92 185.417 4.656C186.473 5.36 187.225 6.352 187.673 7.632C188.153 8.88 188.457 10.448 188.585 12.336C188.713 14.224 188.777 16.496 188.777 19.152C188.777 21.808 188.713 24.08 188.585 25.968C188.457 27.856 188.153 29.44 187.673 30.72C187.225 31.968 186.473 32.96 185.417 33.696C184.361 34.4 182.905 34.912 181.049 35.232C179.193 35.52 176.793 35.664 173.849 35.664H162.281ZM170.633 29.232H173.657C174.969 29.232 176.041 29.2 176.873 29.136C177.705 29.04 178.361 28.848 178.841 28.56C179.353 28.24 179.705 27.728 179.897 27.024C180.121 26.288 180.249 25.296 180.281 24.048C180.345 22.768 180.377 21.136 180.377 19.152C180.377 17.168 180.345 15.552 180.281 14.304C180.249 13.024 180.121 12.032 179.897 11.328C179.673 10.592 179.321 10.064 178.841 9.744C178.361 9.424 177.705 9.232 176.873 9.168C176.041 9.104 174.969 9.072 173.657 9.072H170.633V29.232ZM205.804 36.048C203.5 36.048 201.596 35.904 200.092 35.616C198.588 35.328 197.388 34.88 196.492 34.272C195.628 33.632 194.972 32.816 194.524 31.824C194.108 30.832 193.836 29.648 193.708 28.272C193.612 26.896 193.564 25.296 193.564 23.472C193.564 21.264 193.66 19.36 193.852 17.76C194.076 16.16 194.556 14.848 195.292 13.824C196.028 12.8 197.164 12.048 198.7 11.568C200.268 11.056 202.38 10.8 205.036 10.8C207.18 10.8 208.924 10.96 210.268 11.28C211.612 11.568 212.668 12.032 213.436 12.672C214.236 13.28 214.796 14.08 215.116 15.072C215.468 16.064 215.692 17.264 215.788 18.672C215.884 20.048 215.932 21.648 215.932 23.472V25.344H201.196C201.196 26.432 201.244 27.312 201.34 27.984C201.436 28.624 201.692 29.104 202.108 29.424C202.524 29.744 203.164 29.968 204.028 30.096C204.892 30.192 206.092 30.24 207.628 30.24C208.236 30.24 208.956 30.224 209.788 30.192C210.62 30.16 211.484 30.112 212.38 30.048C213.308 29.984 214.172 29.92 214.972 29.856V35.232C214.268 35.392 213.404 35.536 212.38 35.664C211.388 35.792 210.316 35.888 209.164 35.952C208.012 36.016 206.892 36.048 205.804 36.048ZM208.684 22.128V21.36C208.684 20.208 208.62 19.296 208.492 18.624C208.396 17.952 208.204 17.456 207.916 17.136C207.66 16.784 207.292 16.56 206.812 16.464C206.332 16.368 205.724 16.32 204.988 16.32C204.156 16.32 203.484 16.384 202.972 16.512C202.492 16.608 202.124 16.832 201.868 17.184C201.612 17.536 201.436 18.048 201.34 18.72C201.244 19.392 201.196 20.272 201.196 21.36H209.5L208.684 22.128ZM230.603 36.048C229.579 36.048 228.459 36.016 227.243 35.952C226.059 35.888 224.891 35.808 223.739 35.712C222.619 35.616 221.611 35.504 220.715 35.376V29.952C221.227 29.984 221.803 30.032 222.443 30.096C223.115 30.16 223.803 30.208 224.507 30.24C225.211 30.272 225.883 30.304 226.523 30.336C227.195 30.336 227.803 30.336 228.347 30.336C229.851 30.336 230.923 30.288 231.563 30.192C232.235 30.096 232.651 29.904 232.811 29.616C233.003 29.296 233.099 28.88 233.099 28.368C233.099 27.856 233.035 27.488 232.907 27.264C232.811 27.04 232.587 26.88 232.235 26.784C231.915 26.688 231.355 26.592 230.555 26.496L224.843 25.776C223.467 25.584 222.427 25.184 221.723 24.576C221.019 23.936 220.539 23.088 220.283 22.032C220.059 20.944 219.947 19.68 219.947 18.24C219.947 16.544 220.203 15.216 220.715 14.256C221.227 13.264 221.931 12.528 222.827 12.048C223.755 11.536 224.843 11.2 226.091 11.04C227.371 10.88 228.731 10.8 230.171 10.8C231.195 10.8 232.251 10.832 233.339 10.896C234.427 10.96 235.467 11.056 236.459 11.184C237.451 11.28 238.267 11.392 238.907 11.52V16.896C238.107 16.832 237.259 16.768 236.363 16.704C235.499 16.64 234.667 16.592 233.867 16.56C233.067 16.528 232.395 16.512 231.851 16.512C230.571 16.512 229.579 16.544 228.875 16.608C228.203 16.672 227.739 16.832 227.483 17.088C227.259 17.344 227.147 17.76 227.147 18.336C227.147 18.784 227.179 19.136 227.243 19.392C227.339 19.616 227.547 19.776 227.867 19.872C228.187 19.968 228.683 20.064 229.355 20.16L235.115 20.88C236.203 21.008 237.131 21.264 237.899 21.648C238.667 22.032 239.243 22.72 239.627 23.712C240.043 24.704 240.251 26.192 240.251 28.176C240.251 29.968 240.011 31.392 239.531 32.448C239.083 33.472 238.427 34.256 237.563 34.8C236.699 35.312 235.675 35.648 234.491 35.808C233.339 35.968 232.043 36.048 230.603 36.048ZM245.003 6.192V0H252.923V6.192H245.003ZM245.099 35.664V11.184H252.875V35.664H245.099ZM268.625 45.552C267.601 45.552 266.529 45.52 265.409 45.456C264.321 45.424 263.297 45.36 262.337 45.264C261.377 45.168 260.577 45.056 259.937 44.928V39.6C260.609 39.632 261.329 39.648 262.097 39.648C262.865 39.68 263.633 39.696 264.401 39.696C265.201 39.696 265.953 39.696 266.657 39.696C268.225 39.696 269.441 39.632 270.305 39.504C271.201 39.408 271.857 39.168 272.273 38.784C272.721 38.432 272.993 37.888 273.089 37.152C273.185 36.448 273.233 35.488 273.233 34.272V32.544H272.849C272.369 33.376 271.777 34.016 271.073 34.464C270.401 34.88 269.649 35.168 268.817 35.328C267.985 35.488 267.089 35.568 266.129 35.568C264.657 35.568 263.409 35.376 262.385 34.992C261.361 34.576 260.513 33.92 259.841 33.024C259.201 32.096 258.737 30.832 258.449 29.232C258.161 27.632 258.017 25.632 258.017 23.232C258.017 20.8 258.161 18.784 258.449 17.184C258.769 15.584 259.249 14.32 259.889 13.392C260.529 12.464 261.361 11.808 262.385 11.424C263.409 11.008 264.641 10.8 266.081 10.8C266.977 10.8 267.857 10.896 268.721 11.088C269.617 11.248 270.433 11.568 271.169 12.048C271.937 12.528 272.561 13.232 273.041 14.16H273.425L273.617 11.184H280.961V32.88C280.961 35.024 280.849 36.896 280.625 38.496C280.401 40.096 279.889 41.408 279.089 42.432C278.321 43.488 277.105 44.272 275.441 44.784C273.809 45.296 271.537 45.552 268.625 45.552ZM269.489 29.28C270.417 29.28 271.121 29.184 271.601 28.992C272.113 28.768 272.481 28.384 272.705 27.84C272.929 27.328 273.073 26.704 273.137 25.968C273.201 25.2 273.233 24.288 273.233 23.232C273.233 22.208 273.201 21.312 273.137 20.544C273.105 19.776 272.961 19.152 272.705 18.672C272.481 18.064 272.113 17.664 271.601 17.472C271.121 17.248 270.417 17.136 269.489 17.136C268.625 17.136 267.937 17.2 267.425 17.328C266.913 17.424 266.529 17.664 266.273 18.048C266.049 18.432 265.905 19.04 265.841 19.872C265.777 20.704 265.745 21.824 265.745 23.232C265.745 24.64 265.777 25.744 265.841 26.544C265.905 27.344 266.049 27.952 266.273 28.368C266.529 28.752 266.913 29.008 267.425 29.136C267.937 29.232 268.625 29.28 269.489 29.28ZM286.912 35.664V11.184H294.208L294.4 14.16H294.832C295.312 13.328 295.904 12.672 296.608 12.192C297.312 11.68 298.112 11.328 299.008 11.136C299.904 10.912 300.88 10.8 301.936 10.8C303.568 10.8 304.864 11.008 305.824 11.424C306.816 11.84 307.568 12.448 308.08 13.248C308.592 14.048 308.928 15.04 309.088 16.224C309.28 17.408 309.376 18.784 309.376 20.352V35.664H301.648V22.704C301.648 21.392 301.616 20.368 301.552 19.632C301.488 18.864 301.344 18.304 301.12 17.952C300.896 17.6 300.544 17.392 300.064 17.328C299.616 17.232 299.008 17.184 298.24 17.184C297.44 17.184 296.784 17.28 296.272 17.472C295.792 17.632 295.424 17.92 295.168 18.336C294.944 18.752 294.784 19.344 294.688 20.112C294.624 20.848 294.592 21.776 294.592 22.896V35.664H286.912Z" fill="#0F172A"/>
</svg>
