<svg width="357" height="37" viewBox="0 0 357 37" fill="none" xmlns="http://www.w3.org/2000/svg">
<path d="M-0.000203013 35.664V2.64H8.3518V28.944H21.2158V35.664H-0.000203013ZM36.7262 36.048C34.4222 36.048 32.5182 35.904 31.0142 35.616C29.5102 35.328 28.3102 34.88 27.4142 34.272C26.5502 33.632 25.8942 32.816 25.4462 31.824C25.0302 30.832 24.7582 29.648 24.6302 28.272C24.5342 26.896 24.4862 25.296 24.4862 23.472C24.4862 21.264 24.5822 19.36 24.7742 17.76C24.9982 16.16 25.4782 14.848 26.2142 13.824C26.9502 12.8 28.0862 12.048 29.6222 11.568C31.1902 11.056 33.3022 10.8 35.9582 10.8C38.1022 10.8 39.8462 10.96 41.1902 11.28C42.5342 11.568 43.5902 12.032 44.3582 12.672C45.1582 13.28 45.7182 14.08 46.0382 15.072C46.3902 16.064 46.6142 17.264 46.7102 18.672C46.8062 20.048 46.8542 21.648 46.8542 23.472V25.344H32.1182C32.1182 26.432 32.1662 27.312 32.2622 27.984C32.3582 28.624 32.6142 29.104 33.0302 29.424C33.4462 29.744 34.0862 29.968 34.9502 30.096C35.8142 30.192 37.0142 30.24 38.5502 30.24C39.1582 30.24 39.8782 30.224 40.7102 30.192C41.5422 30.16 42.4062 30.112 43.3022 30.048C44.2302 29.984 45.0942 29.92 45.8942 29.856V35.232C45.1902 35.392 44.3262 35.536 43.3022 35.664C42.3102 35.792 41.2382 35.888 40.0862 35.952C38.9342 36.016 37.8142 36.048 36.7262 36.048ZM39.6062 22.128V21.36C39.6062 20.208 39.5422 19.296 39.4142 18.624C39.3182 17.952 39.1262 17.456 38.8382 17.136C38.5822 16.784 38.2142 16.56 37.7342 16.464C37.2542 16.368 36.6462 16.32 35.9102 16.32C35.0782 16.32 34.4062 16.384 33.8942 16.512C33.4142 16.608 33.0462 16.832 32.7902 17.184C32.5342 17.536 32.3582 18.048 32.2622 18.72C32.1662 19.392 32.1182 20.272 32.1182 21.36H40.4222L39.6062 22.128ZM62.7729 36.048C60.5969 36.048 58.7889 35.92 57.3489 35.664C55.9089 35.408 54.7729 34.992 53.9409 34.416C53.1089 33.84 52.5009 33.072 52.1169 32.112C51.7329 31.152 51.4769 29.952 51.3489 28.512C51.2529 27.072 51.2049 25.36 51.2049 23.376C51.2049 21.392 51.2529 19.696 51.3489 18.288C51.4769 16.848 51.7329 15.648 52.1169 14.688C52.5009 13.728 53.1089 12.96 53.9409 12.384C54.7729 11.808 55.9089 11.408 57.3489 11.184C58.7889 10.928 60.5969 10.8 62.7729 10.8C64.9809 10.8 66.8049 10.928 68.2449 11.184C69.6849 11.408 70.8209 11.808 71.6529 12.384C72.4849 12.96 73.0929 13.728 73.4769 14.688C73.8609 15.648 74.1009 16.848 74.1969 18.288C74.3249 19.696 74.3889 21.392 74.3889 23.376C74.3889 25.36 74.3249 27.072 74.1969 28.512C74.1009 29.952 73.8609 31.152 73.4769 32.112C73.0929 33.072 72.4849 33.84 71.6529 34.416C70.8209 34.992 69.6849 35.408 68.2449 35.664C66.8049 35.92 64.9809 36.048 62.7729 36.048ZM62.7729 30.192C63.7329 30.192 64.4849 30.128 65.0289 30C65.5729 29.872 65.9569 29.584 66.1809 29.136C66.4049 28.688 66.5329 28 66.5649 27.072C66.6289 26.144 66.6609 24.912 66.6609 23.376C66.6609 21.84 66.6289 20.624 66.5649 19.728C66.5329 18.832 66.4049 18.16 66.1809 17.712C65.9569 17.264 65.5729 16.976 65.0289 16.848C64.4849 16.72 63.7329 16.656 62.7729 16.656C61.8129 16.656 61.0609 16.72 60.5169 16.848C60.0049 16.976 59.6369 17.264 59.4129 17.712C59.1889 18.16 59.0449 18.832 58.9809 19.728C58.9489 20.624 58.9329 21.84 58.9329 23.376C58.9329 24.912 58.9489 26.144 58.9809 27.072C59.0449 28 59.1889 28.688 59.4129 29.136C59.6369 29.584 60.0049 29.872 60.5169 30C61.0609 30.128 61.8129 30.192 62.7729 30.192ZM79.5365 35.664V11.184H86.8325L87.0245 14.16H87.4565C87.9365 13.328 88.5285 12.672 89.2325 12.192C89.9365 11.68 90.7365 11.328 91.6325 11.136C92.5285 10.912 93.5045 10.8 94.5605 10.8C96.1925 10.8 97.4885 11.008 98.4485 11.424C99.4405 11.84 100.193 12.448 100.705 13.248C101.217 14.048 101.553 15.04 101.713 16.224C101.905 17.408 102.001 18.784 102.001 20.352V35.664H94.2725V22.704C94.2725 21.392 94.2405 20.368 94.1765 19.632C94.1125 18.864 93.9685 18.304 93.7445 17.952C93.5205 17.6 93.1685 17.392 92.6885 17.328C92.2405 17.232 91.6325 17.184 90.8645 17.184C90.0645 17.184 89.4085 17.28 88.8965 17.472C88.4165 17.632 88.0485 17.92 87.7925 18.336C87.5685 18.752 87.4085 19.344 87.3125 20.112C87.2485 20.848 87.2165 21.776 87.2165 22.896V35.664H79.5365ZM107.8 6.192V0H115.72V6.192H107.8ZM107.896 35.664V11.184H115.672V35.664H107.896ZM128.83 36.048C127.422 36.048 126.206 35.856 125.182 35.472C124.158 35.088 123.326 34.432 122.686 33.504C122.046 32.544 121.566 31.248 121.246 29.616C120.958 27.984 120.814 25.936 120.814 23.472C120.814 21.04 120.958 19.008 121.246 17.376C121.534 15.712 121.998 14.416 122.638 13.488C123.278 12.528 124.094 11.84 125.086 11.424C126.11 11.008 127.342 10.8 128.782 10.8C129.742 10.8 130.638 10.88 131.47 11.04C132.334 11.2 133.118 11.488 133.822 11.904C134.526 12.32 135.134 12.944 135.646 13.776H136.03V0H143.758V35.664H136.414L136.222 32.736H135.838C135.358 33.664 134.734 34.368 133.966 34.848C133.23 35.296 132.414 35.6 131.518 35.76C130.654 35.952 129.758 36.048 128.83 36.048ZM132.286 29.712C133.278 29.712 134.014 29.6 134.494 29.376C135.006 29.12 135.374 28.672 135.598 28.032C135.79 27.456 135.902 26.8 135.934 26.064C135.998 25.296 136.03 24.416 136.03 23.424C136.03 22.432 135.998 21.568 135.934 20.832C135.902 20.096 135.79 19.472 135.598 18.96C135.406 18.256 135.054 17.776 134.542 17.52C134.03 17.264 133.278 17.136 132.286 17.136C131.422 17.136 130.734 17.2 130.222 17.328C129.71 17.456 129.326 17.728 129.07 18.144C128.846 18.528 128.702 19.136 128.638 19.968C128.574 20.8 128.542 21.952 128.542 23.424C128.542 24.896 128.574 26.064 128.638 26.928C128.702 27.76 128.846 28.384 129.07 28.8C129.326 29.184 129.71 29.44 130.222 29.568C130.734 29.664 131.422 29.712 132.286 29.712ZM162.281 35.664V2.64H178.169C180.281 2.64 181.993 2.896 183.305 3.408C184.617 3.888 185.625 4.608 186.329 5.568C187.033 6.496 187.513 7.648 187.769 9.024C188.025 10.4 188.153 11.984 188.153 13.776C188.153 15.408 188.025 16.912 187.769 18.288C187.545 19.632 187.081 20.8 186.377 21.792C185.705 22.784 184.697 23.552 183.353 24.096C182.009 24.64 180.233 24.912 178.025 24.912H170.633V35.664H162.281ZM170.633 18.576H174.809C175.961 18.576 176.857 18.512 177.497 18.384C178.169 18.256 178.665 18.032 178.985 17.712C179.305 17.36 179.513 16.88 179.609 16.272C179.705 15.632 179.753 14.8 179.753 13.776C179.753 12.752 179.705 11.92 179.609 11.28C179.545 10.64 179.353 10.16 179.033 9.84C178.713 9.488 178.233 9.264 177.593 9.168C176.953 9.04 176.073 8.976 174.953 8.976H170.633V18.576ZM203.445 36.048C201.269 36.048 199.461 35.92 198.021 35.664C196.581 35.408 195.445 34.992 194.613 34.416C193.781 33.84 193.173 33.072 192.789 32.112C192.405 31.152 192.149 29.952 192.021 28.512C191.925 27.072 191.877 25.36 191.877 23.376C191.877 21.392 191.925 19.696 192.021 18.288C192.149 16.848 192.405 15.648 192.789 14.688C193.173 13.728 193.781 12.96 194.613 12.384C195.445 11.808 196.581 11.408 198.021 11.184C199.461 10.928 201.269 10.8 203.445 10.8C205.653 10.8 207.477 10.928 208.917 11.184C210.357 11.408 211.493 11.808 212.325 12.384C213.157 12.96 213.765 13.728 214.149 14.688C214.533 15.648 214.773 16.848 214.869 18.288C214.997 19.696 215.061 21.392 215.061 23.376C215.061 25.36 214.997 27.072 214.869 28.512C214.773 29.952 214.533 31.152 214.149 32.112C213.765 33.072 213.157 33.84 212.325 34.416C211.493 34.992 210.357 35.408 208.917 35.664C207.477 35.92 205.653 36.048 203.445 36.048ZM203.445 30.192C204.405 30.192 205.157 30.128 205.701 30C206.245 29.872 206.629 29.584 206.853 29.136C207.077 28.688 207.205 28 207.237 27.072C207.301 26.144 207.333 24.912 207.333 23.376C207.333 21.84 207.301 20.624 207.237 19.728C207.205 18.832 207.077 18.16 206.853 17.712C206.629 17.264 206.245 16.976 205.701 16.848C205.157 16.72 204.405 16.656 203.445 16.656C202.485 16.656 201.733 16.72 201.189 16.848C200.677 16.976 200.309 17.264 200.085 17.712C199.861 18.16 199.717 18.832 199.653 19.728C199.621 20.624 199.605 21.84 199.605 23.376C199.605 24.912 199.621 26.144 199.653 27.072C199.717 28 199.861 28.688 200.085 29.136C200.309 29.584 200.677 29.872 201.189 30C201.733 30.128 202.485 30.192 203.445 30.192ZM220.208 35.664V11.184H227.504L227.696 15.36H228.128C228.576 14.176 229.136 13.248 229.808 12.576C230.512 11.904 231.36 11.44 232.352 11.184C233.344 10.928 234.496 10.8 235.808 10.8V17.856C233.792 17.856 232.208 18.112 231.056 18.624C229.904 19.136 229.088 20.016 228.608 21.264C228.128 22.48 227.888 24.192 227.888 26.4V35.664H220.208ZM242.344 35.664V17.04H237.88V11.184H242.344V4.08H250.12V11.184H255.448V17.04H250.12V35.664H242.344ZM261.939 35.664V17.04H257.427V11.184H261.939V9.504C261.939 7.648 262.051 6.144 262.275 4.992C262.499 3.808 262.899 2.88 263.475 2.208C264.051 1.536 264.851 1.056 265.875 0.767999C266.931 0.447999 268.243 0.256 269.811 0.192C271.411 0.0959997 273.315 0.0479994 275.523 0.0479994V5.328C274.211 5.328 273.155 5.36 272.355 5.424C271.587 5.488 271.011 5.632 270.627 5.856C270.243 6.048 269.987 6.352 269.859 6.768C269.763 7.152 269.715 7.712 269.715 8.448V11.184H275.523V17.04H269.715V35.664H261.939ZM290.21 36.048C288.034 36.048 286.226 35.92 284.786 35.664C283.346 35.408 282.21 34.992 281.378 34.416C280.546 33.84 279.938 33.072 279.554 32.112C279.17 31.152 278.914 29.952 278.786 28.512C278.69 27.072 278.642 25.36 278.642 23.376C278.642 21.392 278.69 19.696 278.786 18.288C278.914 16.848 279.17 15.648 279.554 14.688C279.938 13.728 280.546 12.96 281.378 12.384C282.21 11.808 283.346 11.408 284.786 11.184C286.226 10.928 288.034 10.8 290.21 10.8C292.418 10.8 294.242 10.928 295.682 11.184C297.122 11.408 298.258 11.808 299.09 12.384C299.922 12.96 300.53 13.728 300.914 14.688C301.298 15.648 301.538 16.848 301.634 18.288C301.762 19.696 301.826 21.392 301.826 23.376C301.826 25.36 301.762 27.072 301.634 28.512C301.538 29.952 301.298 31.152 300.914 32.112C300.53 33.072 299.922 33.84 299.09 34.416C298.258 34.992 297.122 35.408 295.682 35.664C294.242 35.92 292.418 36.048 290.21 36.048ZM290.21 30.192C291.17 30.192 291.922 30.128 292.466 30C293.01 29.872 293.394 29.584 293.618 29.136C293.842 28.688 293.97 28 294.002 27.072C294.066 26.144 294.098 24.912 294.098 23.376C294.098 21.84 294.066 20.624 294.002 19.728C293.97 18.832 293.842 18.16 293.618 17.712C293.394 17.264 293.01 16.976 292.466 16.848C291.922 16.72 291.17 16.656 290.21 16.656C289.25 16.656 288.498 16.72 287.954 16.848C287.442 16.976 287.074 17.264 286.85 17.712C286.626 18.16 286.482 18.832 286.418 19.728C286.386 20.624 286.37 21.84 286.37 23.376C286.37 24.912 286.386 26.144 286.418 27.072C286.482 28 286.626 28.688 286.85 29.136C287.074 29.584 287.442 29.872 287.954 30C288.498 30.128 289.25 30.192 290.21 30.192ZM306.974 35.664V0H314.75V35.664H306.974ZM320.612 6.192V0H328.532V6.192H320.612ZM320.708 35.664V11.184H328.484V35.664H320.708ZM345.195 36.048C343.019 36.048 341.211 35.92 339.771 35.664C338.331 35.408 337.195 34.992 336.363 34.416C335.531 33.84 334.923 33.072 334.539 32.112C334.155 31.152 333.899 29.952 333.771 28.512C333.675 27.072 333.627 25.36 333.627 23.376C333.627 21.392 333.675 19.696 333.771 18.288C333.899 16.848 334.155 15.648 334.539 14.688C334.923 13.728 335.531 12.96 336.363 12.384C337.195 11.808 338.331 11.408 339.771 11.184C341.211 10.928 343.019 10.8 345.195 10.8C347.403 10.8 349.227 10.928 350.667 11.184C352.107 11.408 353.243 11.808 354.075 12.384C354.907 12.96 355.515 13.728 355.899 14.688C356.283 15.648 356.523 16.848 356.619 18.288C356.747 19.696 356.811 21.392 356.811 23.376C356.811 25.36 356.747 27.072 356.619 28.512C356.523 29.952 356.283 31.152 355.899 32.112C355.515 33.072 354.907 33.84 354.075 34.416C353.243 34.992 352.107 35.408 350.667 35.664C349.227 35.92 347.403 36.048 345.195 36.048ZM345.195 30.192C346.155 30.192 346.907 30.128 347.451 30C347.995 29.872 348.379 29.584 348.603 29.136C348.827 28.688 348.955 28 348.987 27.072C349.051 26.144 349.083 24.912 349.083 23.376C349.083 21.84 349.051 20.624 348.987 19.728C348.955 18.832 348.827 18.16 348.603 17.712C348.379 17.264 347.995 16.976 347.451 16.848C346.907 16.72 346.155 16.656 345.195 16.656C344.235 16.656 343.483 16.72 342.939 16.848C342.427 16.976 342.059 17.264 341.835 17.712C341.611 18.16 341.467 18.832 341.403 19.728C341.371 20.624 341.355 21.84 341.355 23.376C341.355 24.912 341.371 26.144 341.403 27.072C341.467 28 341.611 28.688 341.835 29.136C342.059 29.584 342.427 29.872 342.939 30C343.483 30.128 344.235 30.192 345.195 30.192Z" fill="#0F172A"/>
</svg>
